<?xml version="1.0" encoding="utf-8"?>
<!-- Generator: Adobe Illustrator 16.0.3, SVG Export Plug-In . SVG Version: 6.00 Build 0)  -->
<!DOCTYPE svg PUBLIC "-//W3C//DTD SVG 1.1//EN" "http://www.w3.org/Graphics/SVG/1.1/DTD/svg11.dtd" [
	<!ENTITY st0 "fill:#C1C0C0;">
	<!ENTITY st1 "fill:#FFFFFF;">
	<!ENTITY st2 "fill:none;">
	<!ENTITY st3 "opacity:0.5;fill:#D6D7D7;">
]>
<svg version="1.1" id="Layer_1" xmlns="http://www.w3.org/2000/svg" xmlns:xlink="http://www.w3.org/1999/xlink" x="0px" y="0px"
	 width="202px" height="70px" viewBox="0 0 202 70" style="enable-background:new 0 0 202 70;" xml:space="preserve">
<g>
	<g>
		<rect y="38.70898" style="&st2;" width="202" height="31.29102"/>
		<path style="&st0;" d="M61.125,49.34961l-1.23926-3.17871h-3.99121l-1.22559,3.17871h-1.1709l3.93555-10.03516h0.97363
			l3.91602,10.03516H61.125z M59.52441,45.125l-1.15723-3.09668c-0.15039-0.39209-0.30469-0.87256-0.46387-1.44238
			c-0.09961,0.4375-0.24219,0.91846-0.42871,1.44238l-1.1709,3.09668H59.52441z"/>
		<path style="&st0;" d="M68.62891,49.34961v-4.84668c0-0.61084-0.13867-1.06641-0.41504-1.36719
			c-0.27734-0.30078-0.71094-0.45117-1.30078-0.45117c-0.78125,0-1.35352,0.21191-1.71582,0.63574
			c-0.36328,0.42383-0.54492,1.12354-0.54492,2.09863v3.93066h-1.13086v-7.49219h0.91992l0.18359,1.02539h0.05469
			c0.23145-0.36914,0.55566-0.65527,0.97363-0.85791c0.41699-0.20264,0.88281-0.3042,1.39551-0.3042
			c0.89941,0,1.5752,0.21777,2.0293,0.65283s0.68066,1.13135,0.68066,2.08838v4.8877H68.62891z"/>
		<path style="&st0;" d="M75.60938,39.82715c0-0.25977,0.06348-0.4502,0.19043-0.5708s0.28613-0.18115,0.47656-0.18115
			c0.18164,0,0.33789,0.06152,0.46973,0.18457s0.19727,0.31201,0.19727,0.56738s-0.06543,0.44531-0.19727,0.5708
			s-0.28809,0.18799-0.46973,0.18799c-0.19043,0-0.34961-0.0625-0.47656-0.18799S75.60938,40.08252,75.60938,39.82715z
			 M76.83496,49.34961H75.7041v-7.49219h1.13086V49.34961z"/>
		<path style="&st0;" d="M84.33887,49.34961v-4.84668c0-0.61084-0.13867-1.06641-0.41504-1.36719
			c-0.27734-0.30078-0.71094-0.45117-1.30078-0.45117c-0.78125,0-1.35352,0.21191-1.71582,0.63574
			c-0.36328,0.42383-0.54492,1.12354-0.54492,2.09863v3.93066h-1.13086v-7.49219h0.91992l0.18359,1.02539h0.05469
			c0.23145-0.36914,0.55566-0.65527,0.97363-0.85791c0.41699-0.20264,0.88281-0.3042,1.39551-0.3042
			c0.89941,0,1.5752,0.21777,2.0293,0.65283s0.68066,1.13135,0.68066,2.08838v4.8877H84.33887z"/>
		<path style="&st0;" d="M87.69629,39.82715c0-0.25977,0.06348-0.4502,0.19043-0.5708s0.28613-0.18115,0.47656-0.18115
			c0.18164,0,0.33789,0.06152,0.46973,0.18457s0.19727,0.31201,0.19727,0.56738s-0.06543,0.44531-0.19727,0.5708
			s-0.28809,0.18799-0.46973,0.18799c-0.19043,0-0.34961-0.0625-0.47656-0.18799S87.69629,40.08252,87.69629,39.82715z
			 M88.92188,49.34961h-1.13086v-7.49219h1.13086V49.34961z"/>
		<path style="&st0;" d="M93.72949,48.5498c0.19922,0,0.39258-0.01465,0.57813-0.04443
			c0.18652-0.02979,0.33398-0.06055,0.44336-0.09229v0.86816c-0.12305,0.05908-0.30371,0.1084-0.54199,0.14697
			s-0.45215,0.05811-0.64355,0.05811c-1.44336,0-2.16504-0.76318-2.16504-2.29004v-4.45703h-1.06934v-0.54688l1.06934-0.47168
			l0.47656-1.59961h0.65332v1.73633h2.16602v0.88184h-2.16602v4.40918c0,0.45117,0.10742,0.79736,0.32031,1.03906
			C93.06445,48.4292,93.35645,48.5498,93.72949,48.5498z"/>
		<path style="&st0;" d="M96.14648,39.82715c0-0.25977,0.06348-0.4502,0.19043-0.5708s0.28613-0.18115,0.47656-0.18115
			c0.18164,0,0.33789,0.06152,0.46973,0.18457s0.19727,0.31201,0.19727,0.56738s-0.06543,0.44531-0.19727,0.5708
			s-0.28809,0.18799-0.46973,0.18799c-0.19043,0-0.34961-0.0625-0.47656-0.18799S96.14648,40.08252,96.14648,39.82715z
			 M97.37207,49.34961h-1.13086v-7.49219h1.13086V49.34961z"/>
		<path style="&st0;" d="M104.3584,49.34961l-0.22461-1.06641h-0.05469c-0.37207,0.46924-0.74316,0.78711-1.11328,0.95361
			s-0.83203,0.24951-1.38574,0.24951c-0.74023,0-1.32031-0.19141-1.74023-0.57422s-0.62988-0.92725-0.62988-1.63379
			c0-1.51318,1.20605-2.30615,3.61621-2.37891l1.2666-0.04102v-0.46484c0-0.58789-0.12598-1.02197-0.37793-1.30225
			s-0.65527-0.42041-1.20898-0.42041c-0.62207,0-1.3252,0.19141-2.11035,0.57422l-0.34766-0.86816
			c0.36816-0.20068,0.77051-0.35791,1.20898-0.47168c0.4375-0.11377,0.87695-0.1709,1.31738-0.1709
			c0.88965,0,1.54883,0.19824,1.97852,0.59473c0.42871,0.39648,0.64355,1.03223,0.64355,1.90723v5.11328H104.3584z
			 M101.80469,48.5498c0.7041,0,1.25684-0.19385,1.6582-0.58105s0.60254-0.92969,0.60254-1.62695v-0.67676l-1.12988,0.04785
			c-0.89941,0.03174-1.54688,0.17188-1.94434,0.42041s-0.5957,0.63477-0.5957,1.15869c0,0.41016,0.12305,0.72217,0.37109,0.93652
			C101.01367,48.44287,101.36035,48.5498,101.80469,48.5498z"/>
		<path style="&st0;" d="M109.93555,48.5498c0.19922,0,0.39258-0.01465,0.57813-0.04443
			c0.18652-0.02979,0.33398-0.06055,0.44336-0.09229v0.86816c-0.12305,0.05908-0.30371,0.1084-0.54199,0.14697
			s-0.45215,0.05811-0.64355,0.05811c-1.44336,0-2.16504-0.76318-2.16504-2.29004v-4.45703h-1.06934v-0.54688l1.06934-0.47168
			l0.47656-1.59961h0.65332v1.73633h2.16602v0.88184h-2.16602v4.40918c0,0.45117,0.10742,0.79736,0.32031,1.03906
			C109.27051,48.4292,109.5625,48.5498,109.93555,48.5498z"/>
		<path style="&st0;" d="M112.35254,39.82715c0-0.25977,0.06348-0.4502,0.19043-0.5708s0.28613-0.18115,0.47656-0.18115
			c0.18164,0,0.33789,0.06152,0.46973,0.18457s0.19727,0.31201,0.19727,0.56738s-0.06543,0.44531-0.19727,0.5708
			s-0.28809,0.18799-0.46973,0.18799c-0.19043,0-0.34961-0.0625-0.47656-0.18799S112.35254,40.08252,112.35254,39.82715z
			 M113.57813,49.34961h-1.13086v-7.49219h1.13086V49.34961z"/>
		<path style="&st0;" d="M117.60938,49.34961l-2.83301-7.49219h1.21191l1.60742,4.44336
			c0.36328,1.03906,0.57617,1.71338,0.63965,2.02344h0.05469c0.0498-0.2417,0.20801-0.7417,0.47363-1.50049
			s0.86133-2.41406,1.78711-4.96631h1.21191l-2.83301,7.49219H117.60938z"/>
		<path style="&st0;" d="M126.11426,49.48633c-1.10352,0-1.97363-0.3374-2.61133-1.01172
			c-0.63867-0.67432-0.95703-1.61084-0.95703-2.80957c0-1.20752,0.2959-2.16699,0.88867-2.87793
			c0.5918-0.71094,1.3877-1.06641,2.38672-1.06641c0.93457,0,1.6748,0.30859,2.21973,0.92627s0.81738,1.43213,0.81738,2.44385
			v0.71777h-5.1416c0.02246,0.87939,0.24414,1.54736,0.66406,2.00293s1.01172,0.68359,1.77441,0.68359
			c0.80273,0,1.59766-0.16846,2.38281-0.50586v1.01172c-0.39941,0.17334-0.77734,0.29736-1.13379,0.37256
			S126.61816,49.48633,126.11426,49.48633z M125.80762,42.6709c-0.59961,0-1.07715,0.1958-1.43359,0.58789
			s-0.56641,0.93408-0.62988,1.62695h3.90234c0-0.71533-0.15918-1.26367-0.47656-1.64404
			C126.85156,42.86133,126.39746,42.6709,125.80762,42.6709z"/>
		<path style="&st0;" d="M137.88086,41.73438c0.98145,0,1.74219,0.33594,2.28516,1.0083
			c0.54199,0.67236,0.81348,1.62354,0.81348,2.854s-0.27344,2.18652-0.82031,2.86768s-1.30664,1.02197-2.27832,1.02197
			c-0.48535,0-0.92871-0.08984-1.33105-0.27002c-0.40137-0.18018-0.73828-0.45703-1.01074-0.83057h-0.08203l-0.23828,0.96387
			h-0.81055V38.71289h1.13086v2.58398c0,0.57861-0.01855,1.09814-0.05469,1.55859h0.05469
			C136.06543,42.10791,136.84668,41.73438,137.88086,41.73438z M137.71777,42.68457c-0.77148,0-1.32813,0.22217-1.66797,0.6665
			c-0.34082,0.44434-0.51074,1.19287-0.51074,2.24561s0.1748,1.80566,0.52441,2.25928s0.91016,0.68018,1.68164,0.68018
			c0.69434,0,1.21191-0.25391,1.55273-0.76221c0.33984-0.5083,0.51074-1.23828,0.51074-2.19092
			c0-0.9751-0.1709-1.70215-0.51074-2.18066C138.95703,42.92383,138.43066,42.68457,137.71777,42.68457z"/>
		<path style="&st0;" d="M141.49023,41.85742h1.21191l1.63477,4.27246c0.3584,0.9751,0.58105,1.6792,0.66699,2.1123h0.05469
			c0.05859-0.23242,0.18262-0.62988,0.37109-1.19287s0.80469-2.29346,1.84863-5.19189h1.21191l-3.20703,8.53125
			c-0.31836,0.84375-0.68945,1.44141-1.11328,1.79492c-0.4248,0.35254-0.94531,0.5293-1.5625,0.5293
			c-0.3457,0-0.68555-0.03906-1.02148-0.11621V51.6875c0.24902,0.05469,0.52832,0.08203,0.83691,0.08203
			c0.77637,0,1.33008-0.4375,1.66211-1.3125L144.5,49.39063L141.49023,41.85742z"/>
		<path style="&st0;" d="M21.5542,67.34961l-1.23926-3.17871h-3.99023l-1.22559,3.17871h-1.17139l3.93604-10.03516h0.97363
			l3.91553,10.03516H21.5542z M19.9541,63.125l-1.15771-3.09668c-0.1499-0.3916-0.3042-0.87305-0.46289-1.44238
			c-0.1001,0.4375-0.24316,0.91797-0.4292,1.44238L16.7334,63.125H19.9541z"/>
		<path style="&st0;" d="M26.93408,67.48633c-1.08057,0-1.91699-0.33398-2.50928-1.00195
			c-0.59277-0.66699-0.88867-1.61133-0.88867-2.83301c0-1.25293,0.30078-2.22168,0.90234-2.90527
			c0.60107-0.68359,1.45801-1.02539,2.57031-1.02539c0.3584,0,0.71729,0.03906,1.07617,0.11621
			c0.3584,0.07715,0.64014,0.16895,0.84424,0.27344l-0.34717,0.96387c-0.25-0.10059-0.52246-0.18359-0.81738-0.25
			c-0.29492-0.06543-0.55615-0.09863-0.7832-0.09863c-1.51611,0-2.27441,0.9707-2.27441,2.91211
			c0,0.9209,0.18506,1.62695,0.55518,2.11914s0.91797,0.73828,1.64453,0.73828c0.62207,0,1.25977-0.13477,1.91357-0.40332v1.00488
			C28.3208,67.35645,27.69189,67.48633,26.93408,67.48633z"/>
		<path style="&st0;" d="M35.18018,67.34961l-0.22461-1.06641h-0.05469c-0.37207,0.46973-0.74316,0.78711-1.11328,0.95313
			c-0.37012,0.16699-0.83203,0.25-1.38574,0.25c-0.73975,0-1.31982-0.19141-1.73975-0.57422s-0.62988-0.92773-0.62988-1.63379
			c0-1.5127,1.20508-2.30566,3.61572-2.37891l1.2666-0.04102v-0.46484c0-0.58789-0.12598-1.02246-0.37793-1.30176
			c-0.25195-0.28125-0.65479-0.4209-1.2085-0.4209c-0.62207,0-1.32568,0.19141-2.11133,0.57422l-0.34717-0.86816
			c0.36768-0.2002,0.77051-0.35742,1.20898-0.47168c0.43799-0.11426,0.87695-0.1709,1.31738-0.1709
			c0.88965,0,1.54932,0.19824,1.97803,0.59473c0.4292,0.39648,0.64355,1.03223,0.64355,1.90723v5.11328H35.18018z M32.62646,66.5498
			c0.70361,0,1.25635-0.19336,1.6582-0.58105s0.60254-0.92969,0.60254-1.62695v-0.67676l-1.13037,0.04785
			c-0.89893,0.03223-1.54688,0.17188-1.94385,0.41992c-0.39746,0.24902-0.59619,0.63477-0.59619,1.15918
			c0,0.41016,0.12402,0.72266,0.37158,0.93652C31.83545,66.44238,32.18164,66.5498,32.62646,66.5498z"/>
		<path style="&st0;" d="M43.42627,66.34473h-0.06104c-0.52246,0.76074-1.30322,1.1416-2.34277,1.1416
			c-0.97607,0-1.73535-0.33496-2.27783-1.00488s-0.81348-1.62207-0.81348-2.85742s0.27246-2.19434,0.81689-2.87793
			c0.54492-0.68359,1.30322-1.02539,2.27441-1.02539c1.01221,0,1.78857,0.36914,2.3291,1.10742h0.08838l-0.04785-0.54004
			l-0.02686-0.52637v-3.04883h1.13037v10.63672h-0.91943L43.42627,66.34473z M41.16553,66.53613
			c0.77197,0,1.33105-0.21094,1.67871-0.63184c0.34717-0.42188,0.521-1.10254,0.521-2.04102v-0.23926
			c0-1.06152-0.17627-1.81934-0.52783-2.27246c-0.35205-0.4541-0.91357-0.68066-1.68555-0.68066
			c-0.6626,0-1.16992,0.25879-1.52197,0.77637c-0.35156,0.5166-0.52783,1.24707-0.52783,2.19043
			c0,0.95703,0.1748,1.67969,0.52441,2.16699S40.48926,66.53613,41.16553,66.53613z"/>
		<path style="&st0;" d="M50.04492,67.48633c-1.10303,0-1.97363-0.33691-2.61133-1.01172s-0.95654-1.61133-0.95654-2.80957
			c0-1.20801,0.2959-2.16699,0.88867-2.87793c0.59229-0.71094,1.3877-1.06641,2.38672-1.06641
			c0.93506,0,1.67529,0.30859,2.22021,0.92578c0.54492,0.61816,0.81641,1.43262,0.81641,2.44434v0.71777h-5.14111
			c0.02295,0.87988,0.24414,1.54688,0.66406,2.00293s1.01123,0.68359,1.77393,0.68359c0.80371,0,1.59766-0.16895,2.38281-0.50586
			v1.01172c-0.39844,0.17285-0.77734,0.29785-1.13281,0.37207C50.979,67.44922,50.54883,67.48633,50.04492,67.48633z
			 M49.73877,60.6709c-0.59912,0-1.07715,0.19629-1.43359,0.58789s-0.56641,0.93457-0.62988,1.62695h3.90186
			c0-0.71582-0.15918-1.26367-0.47656-1.64355C50.78271,60.86133,50.32861,60.6709,49.73877,60.6709z"/>
		<path style="&st0;" d="M64.22852,67.34961v-4.87402c0-0.59668-0.12695-1.04492-0.38086-1.34277
			c-0.25391-0.29883-0.64941-0.44824-1.18457-0.44824c-0.7041,0-1.22363,0.20313-1.55957,0.6084s-0.50391,1.03027-0.50391,1.87305
			v4.18359h-1.13086v-4.87402c0-0.59668-0.12695-1.04492-0.38086-1.34277c-0.25488-0.29883-0.65137-0.44824-1.19141-0.44824
			c-0.70898,0-1.22754,0.21289-1.55664,0.63965c-0.3291,0.42578-0.49316,1.12402-0.49316,2.09473v3.93066h-1.13086v-7.49219h0.91992
			l0.18359,1.02539h0.05469c0.21289-0.36426,0.51367-0.64941,0.90234-0.85449c0.3877-0.20508,0.82227-0.30762,1.30371-0.30762
			c1.16699,0,1.92871,0.42383,2.28809,1.27148h0.05469c0.22168-0.3916,0.54395-0.70215,0.9668-0.92969
			c0.42188-0.22754,0.90332-0.3418,1.44336-0.3418c0.84473,0,1.47656,0.21777,1.89648,0.65234
			c0.41992,0.43555,0.62988,1.13184,0.62988,2.08887v4.8877H64.22852z"/>
		<path style="&st0;" d="M67.59277,57.82715c0-0.25977,0.06348-0.4502,0.19043-0.57129
			c0.12695-0.12012,0.28613-0.18066,0.47656-0.18066c0.18164,0,0.33789,0.06152,0.46973,0.18457s0.19727,0.3125,0.19727,0.56738
			s-0.06543,0.44531-0.19727,0.57129c-0.13184,0.125-0.28809,0.1875-0.46973,0.1875c-0.19043,0-0.34961-0.0625-0.47656-0.1875
			C67.65625,58.27246,67.59277,58.08203,67.59277,57.82715z M68.81836,67.34961H67.6875v-7.49219h1.13086V67.34961z"/>
		<path style="&st0;" d="M74.19727,67.48633c-1.08008,0-1.91699-0.33398-2.50879-1.00195
			c-0.59277-0.66699-0.88867-1.61133-0.88867-2.83301c0-1.25293,0.30078-2.22168,0.90234-2.90527s1.45801-1.02539,2.57031-1.02539
			c0.3584,0,0.71777,0.03906,1.07617,0.11621s0.63965,0.16895,0.84375,0.27344l-0.34668,0.96387
			c-0.25-0.10059-0.52246-0.18359-0.81738-0.25c-0.29492-0.06543-0.55566-0.09863-0.7832-0.09863
			c-1.51563,0-2.27441,0.9707-2.27441,2.91211c0,0.9209,0.18555,1.62695,0.55566,2.11914
			c0.36914,0.49219,0.91797,0.73828,1.64355,0.73828c0.62207,0,1.25977-0.13477,1.91406-0.40332v1.00488
			C75.58398,67.35645,74.95605,67.48633,74.19727,67.48633z"/>
		<path style="&st0;" d="M87.26563,64.69043c0,0.87988-0.31738,1.56543-0.95313,2.05762s-1.49805,0.73828-2.58789,0.73828
			c-1.17969,0-2.08789-0.15234-2.72363-0.45801v-1.12109c0.40918,0.17285,0.85352,0.30957,1.33496,0.41016
			s0.95801,0.15039,1.42969,0.15039c0.77148,0,1.35254-0.14746,1.74316-0.44043c0.39063-0.29492,0.58594-0.70313,0.58594-1.22754
			c0-0.34668-0.06934-0.62988-0.20801-0.85059c-0.13867-0.22168-0.37012-0.42578-0.69434-0.6123s-0.81836-0.39844-1.48145-0.63574
			c-0.92578-0.33301-1.58789-0.72656-1.98438-1.18262c-0.39746-0.45605-0.5957-1.05078-0.5957-1.78418
			c0-0.77051,0.28809-1.38281,0.86426-1.83887s1.33887-0.68359,2.28809-0.68359c0.98926,0,1.90039,0.18262,2.73047,0.54688
			l-0.36035,1.01172c-0.82227-0.34668-1.62109-0.51953-2.39746-0.51953c-0.6123,0-1.0918,0.13184-1.43652,0.39648
			s-0.51758,0.63086-0.51758,1.10059c0,0.34668,0.06348,0.62988,0.19043,0.85156c0.12695,0.2207,0.3418,0.42383,0.64355,0.60742
			c0.30176,0.18555,0.76367,0.38867,1.38574,0.6123c1.04395,0.37402,1.7627,0.77441,2.15527,1.20313
			S87.26563,64.00684,87.26563,64.69043z"/>
		<path style="&st0;" d="M92.28516,67.48633c-1.10352,0-1.97363-0.33691-2.61133-1.01172
			c-0.63867-0.6748-0.95703-1.61133-0.95703-2.80957c0-1.20801,0.2959-2.16699,0.88867-2.87793
			c0.5918-0.71094,1.3877-1.06641,2.38672-1.06641c0.93457,0,1.6748,0.30859,2.21973,0.92578
			c0.54492,0.61816,0.81738,1.43262,0.81738,2.44434v0.71777h-5.1416c0.02246,0.87988,0.24414,1.54688,0.66406,2.00293
			s1.01172,0.68359,1.77441,0.68359c0.80273,0,1.59766-0.16895,2.38281-0.50586v1.01172
			c-0.39941,0.17285-0.77734,0.29785-1.13379,0.37207C93.21875,67.44922,92.78906,67.48633,92.28516,67.48633z M91.97852,60.6709
			c-0.59961,0-1.07715,0.19629-1.43359,0.58789s-0.56641,0.93457-0.62988,1.62695h3.90234
			c0-0.71582-0.15918-1.26367-0.47656-1.64355C93.02246,60.86133,92.56836,60.6709,91.97852,60.6709z"/>
		<path style="&st0;" d="M100.36133,59.7207c0.33105,0,0.62793,0.02734,0.8916,0.08203l-0.15625,1.05273
			c-0.30859-0.06836-0.58105-0.10254-0.81738-0.10254c-0.60352,0-1.12012,0.24609-1.54883,0.73828
			c-0.42969,0.49219-0.64355,1.10547-0.64355,1.83887v4.01953h-1.13086v-7.49219h0.93359l0.12891,1.3877h0.05469
			c0.27637-0.4873,0.61035-0.86328,1.00098-1.12793S99.89355,59.7207,100.36133,59.7207z"/>
		<path style="&st0;" d="M104.2832,67.34961l-2.83301-7.49219h1.21191l1.60742,4.44336
			c0.36328,1.03906,0.57617,1.71387,0.63965,2.02344h0.05469c0.0498-0.24121,0.20801-0.74219,0.47363-1.5
			c0.26563-0.75977,0.86133-2.41504,1.78711-4.9668h1.21191l-2.83301,7.49219H104.2832z"/>
		<path style="&st0;" d="M109.54004,57.82715c0-0.25977,0.06348-0.4502,0.19043-0.57129
			c0.12695-0.12012,0.28613-0.18066,0.47656-0.18066c0.18164,0,0.33789,0.06152,0.46973,0.18457s0.19727,0.3125,0.19727,0.56738
			s-0.06543,0.44531-0.19727,0.57129c-0.13184,0.125-0.28809,0.1875-0.46973,0.1875c-0.19043,0-0.34961-0.0625-0.47656-0.1875
			C109.60352,58.27246,109.54004,58.08203,109.54004,57.82715z M110.76563,67.34961h-1.13086v-7.49219h1.13086V67.34961z"/>
		<path style="&st0;" d="M116.14453,67.48633c-1.08008,0-1.91699-0.33398-2.50879-1.00195
			c-0.59277-0.66699-0.88867-1.61133-0.88867-2.83301c0-1.25293,0.30078-2.22168,0.90234-2.90527s1.45801-1.02539,2.57031-1.02539
			c0.3584,0,0.71777,0.03906,1.07617,0.11621s0.63965,0.16895,0.84375,0.27344l-0.34668,0.96387
			c-0.25-0.10059-0.52246-0.18359-0.81738-0.25c-0.29492-0.06543-0.55566-0.09863-0.7832-0.09863
			c-1.51563,0-2.27441,0.9707-2.27441,2.91211c0,0.9209,0.18555,1.62695,0.55566,2.11914
			c0.36914,0.49219,0.91797,0.73828,1.64355,0.73828c0.62207,0,1.25977-0.13477,1.91406-0.40332v1.00488
			C117.53125,67.35645,116.90332,67.48633,116.14453,67.48633z"/>
		<path style="&st0;" d="M122.95508,67.48633c-1.10352,0-1.97363-0.33691-2.61133-1.01172
			c-0.63867-0.6748-0.95703-1.61133-0.95703-2.80957c0-1.20801,0.2959-2.16699,0.88867-2.87793
			c0.5918-0.71094,1.3877-1.06641,2.38672-1.06641c0.93457,0,1.6748,0.30859,2.21973,0.92578
			c0.54492,0.61816,0.81738,1.43262,0.81738,2.44434v0.71777h-5.1416c0.02246,0.87988,0.24414,1.54688,0.66406,2.00293
			s1.01172,0.68359,1.77441,0.68359c0.80273,0,1.59766-0.16895,2.38281-0.50586v1.01172
			c-0.39941,0.17285-0.77734,0.29785-1.13379,0.37207C123.88867,67.44922,123.45898,67.48633,122.95508,67.48633z
			 M122.64844,60.6709c-0.59961,0-1.07715,0.19629-1.43359,0.58789s-0.56641,0.93457-0.62988,1.62695h3.90234
			c0-0.71582-0.15918-1.26367-0.47656-1.64355C123.69238,60.86133,123.23828,60.6709,122.64844,60.6709z"/>
		<path style="&st0;" d="M132.44043,65.30566c0,0.69727-0.25879,1.23535-0.77637,1.61328s-1.24414,0.56738-2.17871,0.56738
			c-0.99023,0-1.76172-0.15723-2.31543-0.47168v-1.05273c0.3584,0.18262,0.74316,0.32617,1.1543,0.43066
			s0.80664,0.15723,1.18848,0.15723c0.58984,0,1.04395-0.09473,1.36133-0.28418c0.31836-0.18848,0.47656-0.47656,0.47656-0.86426
			c0-0.29199-0.12598-0.54102-0.37793-0.74902c-0.25195-0.20703-0.74316-0.45215-1.47363-0.73438
			c-0.69434-0.25977-1.18848-0.48633-1.48145-0.67969c-0.29297-0.19434-0.51074-0.41406-0.65332-0.66016
			c-0.14355-0.24609-0.21484-0.54004-0.21484-0.88184c0-0.61035,0.24707-1.09277,0.74219-1.44629
			c0.49512-0.35254,1.17383-0.5293,2.03613-0.5293c0.80371,0,1.58887,0.16406,2.35645,0.49219l-0.40234,0.92285
			c-0.74902-0.30957-1.42773-0.46484-2.03613-0.46484c-0.53516,0-0.93945,0.08398-1.21191,0.25293s-0.4082,0.40137-0.4082,0.69727
			c0,0.2002,0.05078,0.37109,0.15332,0.5127c0.10156,0.1416,0.2666,0.27539,0.49316,0.40332
			c0.22754,0.12793,0.66309,0.3125,1.30762,0.55371c0.88574,0.32324,1.4834,0.64941,1.79395,0.97754
			C132.28516,64.39648,132.44043,64.80859,132.44043,65.30566z"/>
		<path style="&st0;" d="M146.01953,62.25684c0,1.64941-0.44629,2.91113-1.33789,3.78418
			c-0.89258,0.87207-2.17578,1.30859-3.85059,1.30859h-2.75781v-9.99414h3.0498c1.54883,0,2.75098,0.43066,3.60938,1.29199
			S146.01953,60.71191,146.01953,62.25684z M144.79395,62.29785c0-1.30371-0.32617-2.28516-0.97754-2.94629
			s-1.61914-0.99121-2.9043-0.99121h-1.68164v7.98438h1.40918c1.37988,0,2.41797-0.34082,3.1123-1.02246
			C144.44629,64.6416,144.79395,63.63281,144.79395,62.29785z"/>
		<path style="&st0;" d="M147.97461,57.82715c0-0.25977,0.06348-0.4502,0.19043-0.57129
			c0.12695-0.12012,0.28613-0.18066,0.47656-0.18066c0.18164,0,0.33789,0.06152,0.46973,0.18457s0.19727,0.3125,0.19727,0.56738
			s-0.06543,0.44531-0.19727,0.57129c-0.13184,0.125-0.28809,0.1875-0.46973,0.1875c-0.19043,0-0.34961-0.0625-0.47656-0.1875
			C148.03809,58.27246,147.97461,58.08203,147.97461,57.82715z M149.2002,67.34961h-1.13086v-7.49219h1.13086V67.34961z"/>
		<path style="&st0;" d="M153.23145,67.34961l-2.83301-7.49219h1.21191l1.60742,4.44336
			c0.36328,1.03906,0.57617,1.71387,0.63965,2.02344h0.05469c0.0498-0.24121,0.20801-0.74219,0.47363-1.5
			c0.26563-0.75977,0.86133-2.41504,1.78711-4.9668h1.21191l-2.83301,7.49219H153.23145z"/>
		<path style="&st0;" d="M158.48828,57.82715c0-0.25977,0.06348-0.4502,0.19043-0.57129
			c0.12695-0.12012,0.28613-0.18066,0.47656-0.18066c0.18164,0,0.33789,0.06152,0.46973,0.18457s0.19727,0.3125,0.19727,0.56738
			s-0.06543,0.44531-0.19727,0.57129c-0.13184,0.125-0.28809,0.1875-0.46973,0.1875c-0.19043,0-0.34961-0.0625-0.47656-0.1875
			C158.55176,58.27246,158.48828,58.08203,158.48828,57.82715z M159.71387,67.34961h-1.13086v-7.49219h1.13086V67.34961z"/>
		<path style="&st0;" d="M166.9248,65.30566c0,0.69727-0.25879,1.23535-0.77637,1.61328s-1.24414,0.56738-2.17871,0.56738
			c-0.99023,0-1.76172-0.15723-2.31543-0.47168v-1.05273c0.3584,0.18262,0.74316,0.32617,1.1543,0.43066
			s0.80664,0.15723,1.18848,0.15723c0.58984,0,1.04395-0.09473,1.36133-0.28418c0.31836-0.18848,0.47656-0.47656,0.47656-0.86426
			c0-0.29199-0.12598-0.54102-0.37793-0.74902c-0.25195-0.20703-0.74316-0.45215-1.47363-0.73438
			c-0.69434-0.25977-1.18848-0.48633-1.48145-0.67969c-0.29297-0.19434-0.51074-0.41406-0.65332-0.66016
			c-0.14355-0.24609-0.21484-0.54004-0.21484-0.88184c0-0.61035,0.24707-1.09277,0.74219-1.44629
			c0.49512-0.35254,1.17383-0.5293,2.03613-0.5293c0.80371,0,1.58887,0.16406,2.35645,0.49219l-0.40234,0.92285
			c-0.74902-0.30957-1.42773-0.46484-2.03613-0.46484c-0.53516,0-0.93945,0.08398-1.21191,0.25293s-0.4082,0.40137-0.4082,0.69727
			c0,0.2002,0.05078,0.37109,0.15332,0.5127c0.10156,0.1416,0.2666,0.27539,0.49316,0.40332
			c0.22754,0.12793,0.66309,0.3125,1.30762,0.55371c0.88574,0.32324,1.4834,0.64941,1.79395,0.97754
			C166.76953,64.39648,166.9248,64.80859,166.9248,65.30566z"/>
		<path style="&st0;" d="M168.66895,57.82715c0-0.25977,0.06348-0.4502,0.19043-0.57129
			c0.12695-0.12012,0.28613-0.18066,0.47656-0.18066c0.18164,0,0.33789,0.06152,0.46973,0.18457s0.19727,0.3125,0.19727,0.56738
			s-0.06543,0.44531-0.19727,0.57129c-0.13184,0.125-0.28809,0.1875-0.46973,0.1875c-0.19043,0-0.34961-0.0625-0.47656-0.1875
			C168.73242,58.27246,168.66895,58.08203,168.66895,57.82715z M169.89453,67.34961h-1.13086v-7.49219h1.13086V67.34961z"/>
		<path style="&st0;" d="M178.7334,63.59668c0,1.22168-0.30664,2.1748-0.91992,2.86035
			c-0.6123,0.68652-1.45898,1.0293-2.54004,1.0293c-0.66699,0-1.25977-0.15723-1.77734-0.47168
			c-0.5166-0.31445-0.91699-0.76563-1.19824-1.35352s-0.42188-1.27637-0.42188-2.06445c0-1.22168,0.30371-2.17285,0.91211-2.85449
			c0.6084-0.68066,1.45313-1.02148,2.5332-1.02148c1.04395,0,1.87402,0.34863,2.48926,1.0459S178.7334,62.40723,178.7334,63.59668z
			 M173.04688,63.59668c0,0.95703,0.19043,1.68652,0.57227,2.1875c0.38086,0.50098,0.94238,0.75195,1.68164,0.75195
			c0.74023,0,1.30176-0.24902,1.68555-0.74902c0.38379-0.49805,0.5752-1.22852,0.5752-2.19043
			c0-0.95215-0.19141-1.67578-0.5752-2.1709c-0.38379-0.49414-0.9502-0.74121-1.69922-0.74121
			c-0.73926,0-1.29785,0.24414-1.6748,0.73145S173.04688,62.63086,173.04688,63.59668z"/>
		<path style="&st0;" d="M185.82227,67.34961v-4.84668c0-0.61035-0.13867-1.06641-0.41504-1.36719
			c-0.27734-0.30078-0.71094-0.45117-1.30078-0.45117c-0.78125,0-1.35352,0.21191-1.71582,0.63574
			c-0.36328,0.42383-0.54492,1.12305-0.54492,2.09863v3.93066h-1.13086v-7.49219h0.91992l0.18359,1.02539h0.05469
			c0.23145-0.36914,0.55566-0.65527,0.97363-0.85742c0.41699-0.20313,0.88281-0.30469,1.39551-0.30469
			c0.89941,0,1.5752,0.21777,2.0293,0.65234c0.4541,0.43555,0.68066,1.13184,0.68066,2.08887v4.8877H185.82227z"/>
	</g>
</g>
<g>
	<ellipse style="&st3;" cx="105.31982" cy="14.90234" rx="14.84424" ry="14.90234"/>
	<g>
		<path style="&st1;" d="M111.65723,21.89453v-0.00391l-2.40527-4.08203c-0.18457-0.31641-0.58398-0.41406-0.89453-0.23047
			l-1.31641,1.05078c-0.63281,0.28613-1.19727-0.35938-2.19531-1.71777l-2.05273-3.47852
			c-0.4043-0.88867-0.72559-1.79395-0.1084-2.22754l1.49902-0.73926v-0.00293c0.32813-0.19434,0.40625-0.60156,0.22852-0.90137
			V9.55859l-2.40625-4.08301c-0.18359-0.31641-0.58398-0.41309-0.89355-0.23145l-1.34473,1
			c-0.79199,0.65527-2.77832,3.74902,1.16016,10.61328c4.08496,7.12402,7.97754,7.08008,8.96582,6.61816l1.5332-0.67676v-0.00098
			C111.75586,22.60156,111.83398,22.19531,111.65723,21.89453z"/>
	</g>
</g>
<g>
	<ellipse style="&st3;" cx="61.05688" cy="14.90234" rx="14.84448" ry="14.90234"/>
	<g>
		<polygon style="&st1;" points="51.29199,10.16211 51.29199,21.30469 70.57715,21.30469 70.57715,10.16211 60.93555,17.06445 		"/>
		<polygon style="&st1;" points="70.57715,8.51367 70.57715,7.49805 51.29199,7.49805 51.29199,8.55469 60.93555,15.5293 		"/>
	</g>
</g>
<g>
	<ellipse style="&st3;" cx="146.47949" cy="14.90234" rx="14.84473" ry="14.90234"/>
	<g>
		<path style="&st1;" d="M155.82422,15.08203c0-2.48047-2.84766-4.49219-6.3584-4.49219c-0.12598,0-0.24707,0.00879-0.37109,0.01367
			c0.23633,0.46875,0.37109,0.97266,0.37109,1.49805c0,2.37793-2.61719,4.31934-5.9248,4.47656
			c-0.01465,0.0127-0.03125,0.02441-0.0459,0.03613c0.83984,1.63184,2.97852,2.82129,5.53613,2.94336
			c1.74609,1.41699,4.77734,2.24414,4.77734,2.24414c-1.42578-1.29883-1.57031-2.20801-1.47559-2.71484
			C154.40137,18.3457,155.82422,16.83301,155.82422,15.08203z"/>
		<path style="&st1;" d="M148.36621,9.99414c-0.87305-1.74316-3.2207-2.99316-5.9873-2.99316
			c-3.51172,0-6.35938,2.01074-6.35938,4.49121c0,1.75195,1.42188,3.26465,3.49023,4.00586
			c0.09668,0.50684-0.04883,1.41602-1.47363,2.71484c0,0,2.97559-0.81445,4.72949-2.20801
			c0.01563-0.0127,0.03223-0.02344,0.04785-0.03613c3.30762-0.1582,5.92383-2.09863,5.92383-4.47656
			C148.7373,10.9668,148.60254,10.46387,148.36621,9.99414z"/>
	</g>
</g>
<g>
</g>
<g>
</g>
<g>
</g>
<g>
</g>
<g>
</g>
<g>
</g>
</svg>
